# xmcd CD database file
#
# Track frame offsets:
#	150
#	6071
#	10626
#	22827
#	31150
#	39967
#	49432
#	56093
#	59245
#	62885
#	70071
#	74484
#	83703
#	92176
#	95980
#	99969
#	104301
#	116265
#	121028
#	129452
#	132961
#	136478
#	148510
#	153938
#	168114
#	191801
#	201664
#	214774
#	223860
#	234887
#	253796
#	263149
#
# Disc length: 3622 seconds
#
# Revision: 3
# Processed by: cddbd v1.5.2PL0 Copyright (c) Steve Scherf et al.
# Submitted via: CDex 1.51
#
DISCID=ce0e2420
DTITLE=Francis Poulenc - L' Oeuvre pour Piano - Vol.3  ( Gabriel Tacchino )
DYEAR=2005
DGENRE=Piano
TTITLE0=Trois mouvement perpetuels, FP.14 - I. Assez modéré
TTITLE1=Trois mouvement perpetuels, FP.14 - II. Tres modéré
TTITLE2=Trois mouvement perpetuels, FP.14 - III. Alerte
TTITLE3=Valse en ut majeur  (extr. de L'Album des Six)  FP.17
TTITLE4=Suite pour piano, FP.19 - I. Presto
TTITLE5=Suite pour piano, FP.19 - II. Andante
TTITLE6=Suite pour piano, FP.19 - III.  Vif
TTITLE7=Cinq Impromptus, FP.21 - I. Très agité
TTITLE8=Cinq Impromptus, FP.21 - II. Allegro vivace
TTITLE9=Cinq Impromptus, FP.21 - III. Très modéré
TTITLE10=Cinq Impromptus, FP.21 - IV. Violent
TTITLE11=Cinq Impromptus, FP.21 - V. Andante
TTITLE12=Promenades, FP.24 - I. À pied
TTITLE13=Promenades, FP.24 - II. En auto
TTITLE14=Promenades, FP.24 - III. À cheval
TTITLE15=Promenades, FP.24 - IV. En bateau
TTITLE16=Promenades, FP.24 - V. En avion
TTITLE17=Promenades, FP.24 - VI. En autobus
TTITLE18=Promenades, FP.24 - VII. En voiture
TTITLE19=Promenades, FP.24 - VIII. En chemin de fer
TTITLE20=Promenades, FP.24 - IX. À bicyclette
TTITLE21=Promenades, FP.24 - X. En diligence
TTITLE22=Napoli  (suite pour piano)  FP.40 - I. Barcarolle
TTITLE23=Napoli  (suite pour piano)  FP.40 - II. Nocturne
TTITLE24=Napoli  (suite pour piano)  FP.40 - III. Caprice Italien
TTITLE25=Pastourelle  (de L' Évantail de Jeanne)
TTITLE26=Deux Novelettes, FP.47 - N°1 en ut majeur
TTITLE27=Deux Novelettes, FP.47 - N°2 en si bémol mineur
TTITLE28=Trois Pièces pour piano, FP.48 - I. Pastorale
TTITLE29=Trois Pièces pour piano, FP.48 - II. Hymne
TTITLE30=Trois Pièces pour piano, FP.48 - III. Toccata
TTITLE31=Pièce breve sur le nom d'Albert Roussel, FP.50
EXTD=YEAR: 2005
EXTT0=
EXTT1=
EXTT2=
EXTT3=
EXTT4=
EXTT5=
EXTT6=
EXTT7=
EXTT8=
EXTT9=
EXTT10=
EXTT11=
EXTT12=
EXTT13=
EXTT14=
EXTT15=
EXTT16=
EXTT17=
EXTT18=
EXTT19=
EXTT20=
EXTT21=
EXTT22=
EXTT23=
EXTT24=
EXTT25=
EXTT26=
EXTT27=
EXTT28=
EXTT29=
EXTT30=
EXTT31=
PLAYORDER=
